<svg xmlns="http://www.w3.org/2000/svg" version="1.1" xmlns:xlink="http://www.w3.org/1999/xlink" xmlns:svgjs="http://svgjs.dev/svgjs" viewBox="0 0 18.439722229340333 14.03449421005196"><g transform="matrix(1,0,0,1,1.3380862123264174,10.564492088634633)"><rect width="18.439722229340333" height="18.439722229340333" x="-1.3380862123264183" y="-12.76710609827882" fill="#ffffff"></rect><g><path d=" M 0.18 1.0012499999999998 Q 0.0615 0.9134999999999998 0.0525 0.7499999999999998 L 0.366 0.7499999999999998 Q 0.3705 0.8054999999999998 0.399 0.8309999999999997 Q 0.4275 0.8564999999999998 0.47250000000000003 0.8564999999999998 Q 0.513 0.8564999999999998 0.53925 0.8362499999999998 Q 0.5655 0.8159999999999998 0.5655 0.7799999999999998 Q 0.5655 0.7334999999999998 0.522 0.7079999999999997 Q 0.47850000000000004 0.6824999999999998 0.381 0.6509999999999998 Q 0.2775 0.6164999999999998 0.21375 0.5842499999999997 Q 0.15 0.5519999999999998 0.10275000000000001 0.4897499999999998 Q 0.0555 0.42749999999999977 0.0555 0.32699999999999974 Q 0.0555 0.22499999999999976 0.1065 0.15224999999999977 Q 0.1575 0.07949999999999979 0.2475 0.041999999999999815 Q 0.3375 0.0044999999999997264 0.4515 0.0044999999999997264 Q 0.636 0.0044999999999997264 0.74625 0.09074999999999978 Q 0.8565 0.17699999999999982 0.864 0.33299999999999974 L 0.5445 0.33299999999999974 Q 0.543 0.2849999999999998 0.51525 0.2609999999999998 Q 0.4875 0.23699999999999977 0.444 0.23699999999999977 Q 0.41100000000000003 0.23699999999999977 0.39 0.25649999999999973 Q 0.369 0.2759999999999998 0.369 0.3119999999999997 Q 0.369 0.34199999999999975 0.39225 0.3637499999999998 Q 0.41550000000000004 0.38549999999999973 0.45 0.4012499999999998 Q 0.4845 0.4169999999999998 0.552 0.4409999999999997 Q 0.6525 0.4754999999999998 0.71775 0.5092499999999998 Q 0.783 0.5429999999999998 0.83025 0.6037499999999998 Q 0.8775000000000001 0.6644999999999998 0.8775000000000001 0.7574999999999998 Q 0.8775000000000001 0.8519999999999998 0.83025 0.9269999999999998 Q 0.783 1.0019999999999998 0.69375 1.0454999999999999 Q 0.6045 1.0889999999999997 0.483 1.0889999999999997 Q 0.2985 1.0889999999999997 0.18 1.0012499999999998 M 1.81799267578125 1.0784999999999998 L 1.73249267578125 0.9974999999999998 Q 1.58999267578125 1.0949999999999998 1.39199267578125 1.0949999999999998 Q 1.26749267578125 1.0949999999999998 1.17524267578125 1.0544999999999998 Q 1.08299267578125 1.0139999999999998 1.03274267578125 0.9404999999999998 Q 0.98249267578125 0.8669999999999998 0.98249267578125 0.7709999999999998 Q 0.98249267578125 0.6749999999999998 1.03274267578125 0.5962499999999997 Q 1.08299267578125 0.5174999999999997 1.1834926757812498 0.46799999999999975 Q 1.14599267578125 0.4199999999999998 1.12949267578125 0.3764999999999997 Q 1.1129926757812498 0.33299999999999974 1.1129926757812498 0.28349999999999975 Q 1.1129926757812498 0.2054999999999998 1.15349267578125 0.1409999999999998 Q 1.19399267578125 0.07649999999999979 1.2727426757812499 0.03824999999999967 Q 1.35149267578125 -2.220446049250313e-16 1.45949267578125 -2.220446049250313e-16 Q 1.5689926757812498 -2.220446049250313e-16 1.64549267578125 0.03974999999999973 Q 1.7219926757812498 0.07949999999999979 1.76024267578125 0.14474999999999982 Q 1.79849267578125 0.20999999999999974 1.79699267578125 0.28649999999999975 L 1.52549267578125 0.28649999999999975 Q 1.52549267578125 0.2519999999999998 1.50599267578125 0.23399999999999976 Q 1.48649267578125 0.21599999999999975 1.45799267578125 0.21599999999999975 Q 1.42799267578125 0.21599999999999975 1.40774267578125 0.23324999999999974 Q 1.38749267578125 0.2504999999999997 1.38749267578125 0.28049999999999975 Q 1.38749267578125 0.33299999999999974 1.46249267578125 0.4079999999999998 L 1.7099926757812498 0.6494999999999997 Q 1.7234926757812499 0.6224999999999998 1.73849267578125 0.5849999999999997 L 1.7684926757812498 0.5309999999999998 L 2.05949267578125 0.5309999999999998 L 2.0159926757812503 0.6149999999999998 Q 1.96199267578125 0.7439999999999998 1.8974926757812498 0.8324999999999998 L 2.14949267578125 1.0784999999999998 L 1.81799267578125 1.0784999999999998 M 1.55249267578125 0.8249999999999997 L 1.34399267578125 0.6254999999999997 Q 1.30499267578125 0.6494999999999997 1.28549267578125 0.6809999999999998 Q 1.2659926757812499 0.7124999999999998 1.2659926757812499 0.7454999999999998 Q 1.2659926757812499 0.7934999999999998 1.30499267578125 0.8264999999999998 Q 1.34399267578125 0.8594999999999998 1.41149267578125 0.8594999999999998 Q 1.49099267578125 0.8594999999999998 1.55249267578125 0.8249999999999997 M 2.907031494140625 0.3689999999999998 Q 2.881531494140625 0.32699999999999974 2.837281494140625 0.30449999999999977 Q 2.793031494140625 0.2819999999999998 2.733031494140625 0.2819999999999998 Q 2.622031494140625 0.2819999999999998 2.558281494140625 0.35399999999999976 Q 2.4945314941406247 0.4259999999999998 2.4945314941406247 0.5474999999999998 Q 2.4945314941406247 0.6839999999999997 2.562781494140625 0.7552499999999998 Q 2.631031494140625 0.8264999999999998 2.761531494140625 0.8264999999999998 Q 2.9160314941406247 0.8264999999999998 2.982031494140625 0.6869999999999998 L 2.686531494140625 0.6869999999999998 L 2.686531494140625 0.4754999999999998 L 3.2355314941406252 0.4754999999999998 L 3.2355314941406252 0.7604999999999997 Q 3.201031494140625 0.8444999999999998 3.134281494140625 0.9179999999999998 Q 3.067531494140625 0.9914999999999998 2.965531494140625 1.0387499999999998 Q 2.863531494140625 1.0859999999999999 2.733031494140625 1.0859999999999999 Q 2.574031494140625 1.0859999999999999 2.451781494140625 1.0177499999999997 Q 2.3295314941406247 0.9494999999999998 2.262781494140625 0.8272499999999998 Q 2.196031494140625 0.7049999999999998 2.196031494140625 0.5474999999999998 Q 2.196031494140625 0.39149999999999974 2.262781494140625 0.26924999999999977 Q 2.3295314941406247 0.1469999999999998 2.451031494140625 0.07874999999999976 Q 2.572531494140625 0.010499999999999732 2.731531494140625 0.010499999999999732 Q 2.931031494140625 0.010499999999999732 3.061531494140625 0.10649999999999982 Q 3.192031494140625 0.2024999999999998 3.223531494140625 0.3689999999999998 L 2.907031494140625 0.3689999999999998 M 4.447528564453124 0.020999999999999686 L 4.447528564453124 0.2549999999999998 L 4.165528564453124 0.2549999999999998 L 4.165528564453124 1.0784999999999998 L 3.8715285644531248 1.0784999999999998 L 3.8715285644531248 0.2549999999999998 L 3.592528564453125 0.2549999999999998 L 3.592528564453125 0.020999999999999686 L 4.447528564453124 0.020999999999999686 M 5.091034423828125 1.0784999999999998 L 4.881034423828125 0.6884999999999998 L 4.849534423828125 0.6884999999999998 L 4.849534423828125 1.0784999999999998 L 4.555534423828124 1.0784999999999998 L 4.555534423828124 0.020999999999999686 L 5.019034423828125 0.020999999999999686 Q 5.1465344238281245 0.020999999999999686 5.235034423828125 0.06524999999999981 Q 5.323534423828125 0.10949999999999982 5.368534423828125 0.18674999999999975 Q 5.413534423828125 0.2639999999999998 5.413534423828125 0.35999999999999976 Q 5.413534423828125 0.46799999999999975 5.354284423828124 0.5497499999999997 Q 5.295034423828125 0.6314999999999997 5.181034423828125 0.6659999999999997 L 5.419534423828125 1.0784999999999998 L 5.091034423828125 1.0784999999999998 M 4.849534423828125 0.4874999999999998 L 4.995034423828125 0.4874999999999998 Q 5.055034423828125 0.4874999999999998 5.085034423828125 0.45899999999999974 Q 5.115034423828124 0.43049999999999977 5.115034423828124 0.3764999999999997 Q 5.115034423828124 0.3254999999999998 5.084284423828125 0.2962499999999998 Q 5.053534423828125 0.2669999999999998 4.995034423828125 0.2669999999999998 L 4.849534423828125 0.2669999999999998 L 4.849534423828125 0.4874999999999998 M 6.214550537109375 0.9059999999999998 L 5.839550537109375 0.9059999999999998 L 5.782550537109374 1.0784999999999998 L 5.473550537109374 1.0784999999999998 L 5.859050537109375 0.020999999999999686 L 6.198050537109375 0.020999999999999686 L 6.5820505371093745 1.0784999999999998 L 6.271550537109375 1.0784999999999998 L 6.214550537109375 0.9059999999999998 M 6.141050537109375 0.6809999999999998 L 6.027050537109375 0.33899999999999975 L 5.914550537109375 0.6809999999999998 L 6.141050537109375 0.6809999999999998 M 7.656057861328125 1.0784999999999998 L 7.3620578613281245 1.0784999999999998 L 6.970557861328125 0.4874999999999998 L 6.970557861328125 1.0784999999999998 L 6.676557861328124 1.0784999999999998 L 6.676557861328124 0.020999999999999686 L 6.970557861328125 0.020999999999999686 L 7.3620578613281245 0.6194999999999997 L 7.3620578613281245 0.020999999999999686 L 7.656057861328125 0.020999999999999686 L 7.656057861328125 1.0784999999999998 M 7.918579833984374 1.0012499999999998 Q 7.800079833984374 0.9134999999999998 7.791079833984375 0.7499999999999998 L 8.104579833984374 0.7499999999999998 Q 8.109079833984374 0.8054999999999998 8.137579833984375 0.8309999999999997 Q 8.166079833984375 0.8564999999999998 8.211079833984375 0.8564999999999998 Q 8.251579833984374 0.8564999999999998 8.277829833984374 0.8362499999999998 Q 8.304079833984375 0.8159999999999998 8.304079833984375 0.7799999999999998 Q 8.304079833984375 0.7334999999999998 8.260579833984375 0.7079999999999997 Q 8.217079833984375 0.6824999999999998 8.119579833984375 0.6509999999999998 Q 8.016079833984374 0.6164999999999998 7.952329833984375 0.5842499999999997 Q 7.888579833984375 0.5519999999999998 7.841329833984375 0.4897499999999998 Q 7.794079833984375 0.42749999999999977 7.794079833984375 0.32699999999999974 Q 7.794079833984375 0.22499999999999976 7.845079833984374 0.15224999999999977 Q 7.896079833984374 0.07949999999999979 7.986079833984374 0.041999999999999815 Q 8.076079833984375 0.0044999999999997264 8.190079833984374 0.0044999999999997264 Q 8.374579833984374 0.0044999999999997264 8.484829833984374 0.09074999999999978 Q 8.595079833984375 0.17699999999999982 8.602579833984375 0.33299999999999974 L 8.283079833984374 0.33299999999999974 Q 8.281579833984374 0.2849999999999998 8.253829833984375 0.2609999999999998 Q 8.226079833984375 0.23699999999999977 8.182579833984375 0.23699999999999977 Q 8.149579833984374 0.23699999999999977 8.128579833984375 0.25649999999999973 Q 8.107579833984374 0.2759999999999998 8.107579833984374 0.3119999999999997 Q 8.107579833984374 0.34199999999999975 8.130829833984375 0.3637499999999998 Q 8.154079833984374 0.38549999999999973 8.188579833984374 0.4012499999999998 Q 8.223079833984375 0.4169999999999998 8.290579833984374 0.4409999999999997 Q 8.391079833984374 0.4754999999999998 8.456329833984375 0.5092499999999998 Q 8.521579833984374 0.5429999999999998 8.568829833984374 0.6037499999999998 Q 8.616079833984374 0.6644999999999998 8.616079833984374 0.7574999999999998 Q 8.616079833984374 0.8519999999999998 8.568829833984374 0.9269999999999998 Q 8.521579833984374 1.0019999999999998 8.432329833984374 1.0454999999999999 Q 8.343079833984374 1.0889999999999997 8.221579833984375 1.0889999999999997 Q 8.037079833984375 1.0889999999999997 7.918579833984374 1.0012499999999998 M 9.542322509765624 0.5482499999999998 Q 9.498072509765624 0.6269999999999998 9.408822509765624 0.6742499999999998 Q 9.319572509765624 0.7214999999999998 9.190572509765625 0.7214999999999998 L 9.045072509765625 0.7214999999999998 L 9.045072509765625 1.0784999999999998 L 8.751072509765624 1.0784999999999998 L 8.751072509765624 0.020999999999999686 L 9.190572509765625 0.020999999999999686 Q 9.318072509765624 0.020999999999999686 9.407322509765624 0.06599999999999984 Q 9.496572509765624 0.11099999999999977 9.541572509765624 0.19049999999999978 Q 9.586572509765624 0.2699999999999998 9.586572509765624 0.37349999999999983 Q 9.586572509765624 0.4694999999999998 9.542322509765624 0.5482499999999998 M 9.286572509765625 0.37349999999999983 Q 9.286572509765625 0.2579999999999998 9.162072509765624 0.2579999999999998 L 9.045072509765625 0.2579999999999998 L 9.045072509765625 0.4874999999999998 L 9.162072509765624 0.4874999999999998 Q 9.286572509765625 0.4874999999999998 9.286572509765625 0.37349999999999983 M 9.937552001953124 1.0192499999999998 Q 9.813052001953125 0.9494999999999998 9.740302001953124 0.8257499999999998 Q 9.667552001953124 0.7019999999999997 9.667552001953124 0.5459999999999998 Q 9.667552001953124 0.3899999999999998 9.740302001953124 0.26624999999999976 Q 9.813052001953125 0.14249999999999974 9.937552001953124 0.07349999999999968 Q 10.062052001953125 0.0044999999999997264 10.210552001953124 0.0044999999999997264 Q 10.360552001953124 0.0044999999999997264 10.484302001953125 0.07349999999999968 Q 10.608052001953125 0.14249999999999974 10.680052001953124 0.26624999999999976 Q 10.752052001953125 0.3899999999999998 10.752052001953125 0.5459999999999998 Q 10.752052001953125 0.7019999999999997 10.680052001953124 0.8257499999999998 Q 10.608052001953125 0.9494999999999998 10.483552001953125 1.0192499999999998 Q 10.359052001953124 1.0889999999999997 10.210552001953124 1.0889999999999997 Q 10.062052001953125 1.0889999999999997 9.937552001953124 1.0192499999999998 M 10.388302001953125 0.7424999999999997 Q 10.453552001953124 0.6689999999999998 10.453552001953124 0.5459999999999998 Q 10.453552001953124 0.4199999999999998 10.388302001953125 0.3472499999999997 Q 10.323052001953124 0.27449999999999974 10.210552001953124 0.27449999999999974 Q 10.096552001953125 0.27449999999999974 10.032052001953124 0.3472499999999997 Q 9.967552001953125 0.4199999999999998 9.967552001953125 0.5459999999999998 Q 9.967552001953125 0.6704999999999998 10.032052001953124 0.7432499999999997 Q 10.096552001953125 0.8159999999999998 10.210552001953124 0.8159999999999998 Q 10.323052001953124 0.8159999999999998 10.388302001953125 0.7424999999999997 M 11.418032958984375 1.0784999999999998 L 11.208032958984374 0.6884999999999998 L 11.176532958984374 0.6884999999999998 L 11.176532958984374 1.0784999999999998 L 10.882532958984374 1.0784999999999998 L 10.882532958984374 0.020999999999999686 L 11.346032958984374 0.020999999999999686 Q 11.473532958984375 0.020999999999999686 11.562032958984375 0.06524999999999981 Q 11.650532958984375 0.10949999999999982 11.695532958984375 0.18674999999999975 Q 11.740532958984375 0.2639999999999998 11.740532958984375 0.35999999999999976 Q 11.740532958984375 0.46799999999999975 11.681282958984374 0.5497499999999997 Q 11.622032958984374 0.6314999999999997 11.508032958984375 0.6659999999999997 L 11.746532958984375 1.0784999999999998 L 11.418032958984375 1.0784999999999998 M 11.176532958984374 0.4874999999999998 L 11.322032958984375 0.4874999999999998 Q 11.382032958984375 0.4874999999999998 11.412032958984375 0.45899999999999974 Q 11.442032958984374 0.43049999999999977 11.442032958984374 0.3764999999999997 Q 11.442032958984374 0.3254999999999998 11.411282958984375 0.2962499999999998 Q 11.380532958984375 0.2669999999999998 11.322032958984375 0.2669999999999998 L 11.176532958984374 0.2669999999999998 L 11.176532958984374 0.4874999999999998 M 12.669049072265624 0.020999999999999686 L 12.669049072265624 0.2549999999999998 L 12.387049072265624 0.2549999999999998 L 12.387049072265624 1.0784999999999998 L 12.093049072265625 1.0784999999999998 L 12.093049072265625 0.2549999999999998 L 11.814049072265624 0.2549999999999998 L 11.814049072265624 0.020999999999999686 L 12.669049072265624 0.020999999999999686" fill="#382d5e" fill-rule="nonzero"></path></g><g><path d=" M 0.33136363636363636 1.5012340909090909 Q 0.38795454545454544 1.5298704545454545 0.4179545454545454 1.583734090909091 Q 0.44795454545454544 1.6375977272727273 0.44795454545454544 1.711915909090909 Q 0.44795454545454544 1.7855522727272728 0.4179545454545454 1.839075 Q 0.38795454545454544 1.8925977272727272 0.33136363636363636 1.9208931818181818 Q 0.2747727272727272 1.9491886363636364 0.19568181818181818 1.9491886363636364 L 0.05454545454545454 1.9491886363636364 L 0.05454545454545454 1.4725977272727273 L 0.19568181818181818 1.4725977272727273 Q 0.2747727272727272 1.4725977272727273 0.33136363636363636 1.5012340909090909 M 0.3473863636363636 1.8574840909090908 Q 0.39954545454545454 1.805325 0.39954545454545454 1.711915909090909 Q 0.39954545454545454 1.617825 0.3473863636363636 1.5649840909090909 Q 0.2952272727272727 1.5121431818181819 0.19568181818181818 1.5121431818181819 L 0.10227272727272727 1.5121431818181819 L 0.10227272727272727 1.9096431818181818 L 0.19568181818181818 1.9096431818181818 Q 0.2952272727272727 1.9096431818181818 0.3473863636363636 1.8574840909090908 M 0.871359308416193 1.7814613636363636 L 0.5624956720525568 1.7814613636363636 Q 0.5645411265980113 1.8237340909090909 0.5829502175071022 1.853734090909091 Q 0.6013593084161931 1.883734090909091 0.6313593084161931 1.899075 Q 0.6613593084161931 1.9144159090909092 0.6968138538707386 1.9144159090909092 Q 0.7431774902343748 1.9144159090909092 0.7748820356889203 1.891915909090909 Q 0.8065865811434658 1.869415909090909 0.8168138538707386 1.831234090909091 L 0.867268399325284 1.831234090909091 Q 0.8536320356889204 1.8857795454545454 0.8089729447798295 1.9202113636363636 Q 0.7643138538707386 1.9546431818181818 0.6968138538707386 1.9546431818181818 Q 0.6443138538707386 1.9546431818181818 0.6027229447798295 1.9311204545454546 Q 0.5611320356889204 1.9075977272727274 0.5376093084161931 1.8643022727272727 Q 0.5140865811434658 1.8210068181818182 0.5140865811434658 1.7630522727272728 Q 0.5140865811434658 1.7050977272727272 0.537268399325284 1.6614613636363638 Q 0.5604502175071022 1.617825 0.6020411265980112 1.5946431818181819 Q 0.6436320356889204 1.5714613636363637 0.6968138538707386 1.5714613636363637 Q 0.7499956720525567 1.5714613636363637 0.7898820356889203 1.5946431818181819 Q 0.829768399325284 1.617825 0.8512456720525567 1.6570295454545456 Q 0.8727229447798295 1.696234090909091 0.8727229447798295 1.7439613636363638 Q 0.8727229447798295 1.7685068181818182 0.871359308416193 1.7814613636363636 M 0.807609308416193 1.6716886363636365 Q 0.7902229447798295 1.6423704545454547 0.7602229447798294 1.6273704545454546 Q 0.7302229447798294 1.6123704545454545 0.694768399325284 1.6123704545454545 Q 0.6415865811434658 1.6123704545454545 0.6040865811434658 1.6464613636363636 Q 0.5665865811434658 1.6805522727272728 0.5624956720525568 1.7425977272727273 L 0.8243138538707385 1.7425977272727273 Q 0.8249956720525567 1.7010068181818183 0.807609308416193 1.6716886363636365 M 1.007729270241477 1.444643181818182 L 1.007729270241477 1.9491886363636364 L 0.9600019975142045 1.9491886363636364 L 0.9600019975142045 1.444643181818182 L 1.007729270241477 1.444643181818182 M 1.1154592063210227 1.4964613636363637 Q 1.10523193359375 1.486234090909091 1.10523193359375 1.4712340909090909 Q 1.10523193359375 1.456234090909091 1.1154592063210227 1.4463477272727272 Q 1.1256864790482952 1.4364613636363637 1.1400046608664771 1.4364613636363637 Q 1.154322842684659 1.4364613636363637 1.1645501154119318 1.4463477272727272 Q 1.1747773881392045 1.456234090909091 1.1747773881392045 1.4712340909090909 Q 1.1747773881392045 1.486234090909091 1.1645501154119318 1.4964613636363637 Q 1.154322842684659 1.5066886363636365 1.1400046608664771 1.5066886363636365 Q 1.1256864790482952 1.5066886363636365 1.1154592063210227 1.4964613636363637 M 1.1638682972301135 1.576915909090909 L 1.1638682972301135 1.9491886363636364 L 1.1161410245028407 1.9491886363636364 L 1.1161410245028407 1.576915909090909 L 1.1638682972301135 1.576915909090909 M 1.4045527787642043 1.902825 L 1.5300073242187497 1.576915909090909 L 1.5804618696732953 1.576915909090909 L 1.4311436878551134 1.9491886363636364 L 1.3772800514914771 1.9491886363636364 L 1.2279618696732952 1.576915909090909 L 1.2790982333096588 1.576915909090909 L 1.4045527787642043 1.902825 M 1.9806871448863632 1.7814613636363636 L 1.6718235085227269 1.7814613636363636 Q 1.6738689630681816 1.8237340909090909 1.6922780539772724 1.853734090909091 Q 1.7106871448863634 1.883734090909091 1.7406871448863632 1.899075 Q 1.7706871448863633 1.9144159090909092 1.8061416903409087 1.9144159090909092 Q 1.852505326704545 1.9144159090909092 1.8842098721590905 1.891915909090909 Q 1.915914417613636 1.869415909090909 1.9261416903409088 1.831234090909091 L 1.976596235795454 1.831234090909091 Q 1.9629598721590906 1.8857795454545454 1.9183007812499997 1.9202113636363636 Q 1.8736416903409088 1.9546431818181818 1.8061416903409087 1.9546431818181818 Q 1.7536416903409087 1.9546431818181818 1.7120507812499997 1.9311204545454546 Q 1.6704598721590906 1.9075977272727274 1.6469371448863632 1.8643022727272727 Q 1.623414417613636 1.8210068181818182 1.623414417613636 1.7630522727272728 Q 1.623414417613636 1.7050977272727272 1.6465962357954542 1.6614613636363638 Q 1.6697780539772724 1.617825 1.7113689630681814 1.5946431818181819 Q 1.7529598721590907 1.5714613636363637 1.8061416903409087 1.5714613636363637 Q 1.8593235085227269 1.5714613636363637 1.8992098721590907 1.5946431818181819 Q 1.9390962357954542 1.617825 1.960573508522727 1.6570295454545456 Q 1.9820507812499997 1.696234090909091 1.9820507812499997 1.7439613636363638 Q 1.9820507812499997 1.7685068181818182 1.9806871448863632 1.7814613636363636 M 1.9169371448863632 1.6716886363636365 Q 1.8995507812499997 1.6423704545454547 1.8695507812499996 1.6273704545454546 Q 1.8395507812499996 1.6123704545454545 1.8040962357954542 1.6123704545454545 Q 1.750914417613636 1.6123704545454545 1.713414417613636 1.6464613636363636 Q 1.675914417613636 1.6805522727272728 1.6718235085227269 1.7425977272727273 L 1.9336416903409086 1.7425977272727273 Q 1.934323508522727 1.7010068181818183 1.9169371448863632 1.6716886363636365 M 2.165125288529829 1.5891886363636365 Q 2.1975116521661926 1.5700977272727275 2.2445571067116474 1.5700977272727275 L 2.2445571067116474 1.6198704545454545 L 2.2316025612571018 1.6198704545454545 Q 2.17978437943892 1.6198704545454545 2.1484207430752837 1.647825 Q 2.117057106711647 1.6757795454545454 2.117057106711647 1.7412340909090909 L 2.117057106711647 1.9491886363636364 L 2.0693298339843746 1.9491886363636364 L 2.0693298339843746 1.576915909090909 L 2.117057106711647 1.576915909090909 L 2.117057106711647 1.6430522727272727 Q 2.1327389248934656 1.6082795454545455 2.165125288529829 1.5891886363636365 M 2.3154658647017037 1.4964613636363637 Q 2.305238591974431 1.486234090909091 2.305238591974431 1.4712340909090909 Q 2.305238591974431 1.456234090909091 2.3154658647017037 1.4463477272727272 Q 2.3256931374289764 1.4364613636363637 2.3400113192471585 1.4364613636363637 Q 2.3543295010653402 1.4364613636363637 2.364556773792613 1.4463477272727272 Q 2.3747840465198857 1.456234090909091 2.3747840465198857 1.4712340909090909 Q 2.3747840465198857 1.486234090909091 2.364556773792613 1.4964613636363637 Q 2.3543295010653402 1.5066886363636365 2.3400113192471585 1.5066886363636365 Q 2.3256931374289764 1.5066886363636365 2.3154658647017037 1.4964613636363637 M 2.3638749556107945 1.576915909090909 L 2.3638749556107945 1.9491886363636364 L 2.316147682883522 1.9491886363636364 L 2.316147682883522 1.576915909090909 L 2.3638749556107945 1.576915909090909 M 2.755923073508522 1.6113477272727272 Q 2.798195800781249 1.6525977272727272 2.798195800781249 1.7310068181818181 L 2.798195800781249 1.9491886363636364 L 2.7511503462357947 1.9491886363636364 L 2.7511503462357947 1.7364613636363637 Q 2.7511503462357947 1.6757795454545454 2.7208094371448857 1.643734090909091 Q 2.6904685280539766 1.6116886363636365 2.6379685280539764 1.6116886363636365 Q 2.58410489169034 1.6116886363636365 2.5520594371448855 1.6457795454545454 Q 2.5200139825994308 1.6798704545454546 2.5200139825994308 1.7460068181818182 L 2.5200139825994308 1.9491886363636364 L 2.4722867098721584 1.9491886363636364 L 2.4722867098721584 1.576915909090909 L 2.5200139825994308 1.576915909090909 L 2.5200139825994308 1.640325 Q 2.537741255326704 1.606234090909091 2.5711503462357945 1.5881659090909093 Q 2.6045594371448857 1.5700977272727275 2.6468321644176127 1.5700977272727275 Q 2.7136503462357946 1.5700977272727275 2.755923073508522 1.6113477272727272 M 3.15137462269176 1.5960068181818183 Q 3.1902382590553966 1.6205522727272728 3.207283713600851 1.6580522727272728 L 3.207283713600851 1.576915909090909 L 3.255010986328124 1.576915909090909 L 3.255010986328124 1.958734090909091 Q 3.255010986328124 2.0098704545454544 3.232851895419033 2.049415909090909 Q 3.210692804509942 2.0889613636363635 3.1711473499644875 2.1104386363636363 Q 3.131601895419033 2.131915909090909 3.0811473499644877 2.131915909090909 Q 3.0095564408735784 2.131915909090909 2.962170077237215 2.097825 Q 2.914783713600851 2.063734090909091 2.903192804509942 2.005097727272727 L 2.950238259055397 2.005097727272727 Q 2.962510986328124 2.0439613636363636 2.996942804509942 2.067143181818182 Q 3.0313746226917604 2.090325 3.0811473499644877 2.090325 Q 3.1172837136008513 2.090325 3.1459200772372147 2.074984090909091 Q 3.1745564408735785 2.0596431818181817 3.190920077237215 2.029643181818182 Q 3.207283713600851 1.999643181818182 3.207283713600851 1.958734090909091 L 3.207283713600851 1.8666886363636364 Q 3.1895564408735786 1.9048704545454545 3.1510337136008513 1.929756818181818 Q 3.112510986328124 1.9546431818181818 3.0600109863281237 1.9546431818181818 Q 3.0088746226917604 1.9546431818181818 2.9683064408735786 1.9307795454545456 Q 2.927738259055397 1.9069159090909091 2.9048973499644877 1.8632795454545454 Q 2.8820564408735785 1.8196431818181817 2.8820564408735785 1.7623704545454546 Q 2.8820564408735785 1.7050977272727272 2.9048973499644877 1.6618022727272728 Q 2.927738259055397 1.6185068181818183 2.9683064408735786 1.5949840909090909 Q 3.0088746226917604 1.5714613636363637 3.0600109863281237 1.5714613636363637 Q 3.112510986328124 1.5714613636363637 3.15137462269176 1.5960068181818183 M 3.18887462269176 1.6839613636363637 Q 3.1704655317826695 1.6498704545454546 3.138760986328124 1.6314613636363637 Q 3.1070564408735786 1.6130522727272727 3.0688746226917605 1.6130522727272727 Q 3.029329168146306 1.6130522727272727 2.9979655317826692 1.6307795454545455 Q 2.966601895419033 1.648506818181818 2.948533713600851 1.6822568181818183 Q 2.9304655317826693 1.7160068181818182 2.9304655317826693 1.7623704545454546 Q 2.9304655317826693 1.8080522727272728 2.948533713600851 1.842484090909091 Q 2.966601895419033 1.876915909090909 2.9979655317826692 1.894984090909091 Q 3.029329168146306 1.9130522727272727 3.0688746226917605 1.9130522727272727 Q 3.1070564408735786 1.9130522727272727 3.138760986328124 1.894643181818182 Q 3.1704655317826695 1.8762340909090909 3.18887462269176 1.842143181818182 Q 3.207283713600851 1.8080522727272728 3.207283713600851 1.7630522727272728 Q 3.207283713600851 1.7180522727272727 3.18887462269176 1.6839613636363637 M 3.8577209472656238 1.576915909090909 L 3.636811856356533 2.124415909090909 L 3.5870391290838057 2.124415909090909 L 3.659311856356533 1.947143181818182 L 3.50658458362926 1.576915909090909 L 3.55908458362926 1.576915909090909 L 3.685902765447442 1.894643181818182 L 3.808630038174715 1.576915909090909 L 3.8577209472656238 1.576915909090909 M 3.991004749644885 1.9311204545454546 Q 3.949072931463067 1.9075977272727274 3.9248683860085216 1.8643022727272727 Q 3.900663840553976 1.8210068181818182 3.900663840553976 1.7630522727272728 Q 3.900663840553976 1.7050977272727272 3.9252092950994304 1.6618022727272728 Q 3.9497547496448853 1.6185068181818183 3.9920274769176123 1.5949840909090909 Q 4.034300204190339 1.5714613636363637 4.0868002041903395 1.5714613636363637 Q 4.13930020419034 1.5714613636363637 4.181913840553976 1.5949840909090909 Q 4.224527476917612 1.6185068181818183 4.248732022372158 1.6618022727272728 Q 4.2729365678267035 1.7050977272727272 4.2729365678267035 1.7630522727272728 Q 4.2729365678267035 1.820325 4.248391113281249 1.8639613636363637 Q 4.223845658735794 1.9075977272727274 4.180891113281248 1.9311204545454546 Q 4.137936567826703 1.9546431818181818 4.0854365678267035 1.9546431818181818 Q 4.032936567826703 1.9546431818181818 3.991004749644885 1.9311204545454546 M 4.153618386008521 1.8963477272727274 Q 4.184982022372158 1.8796431818181818 4.2044138405539755 1.8458931818181818 Q 4.223845658735794 1.812143181818182 4.223845658735794 1.7630522727272728 Q 4.223845658735794 1.7139613636363638 4.204754749644885 1.6802113636363636 Q 4.185663840553976 1.6464613636363636 4.154300204190339 1.6297568181818183 Q 4.122936567826703 1.6130522727272727 4.086118386008521 1.6130522727272727 Q 4.04930020419034 1.6130522727272727 4.017936567826704 1.6297568181818183 Q 3.986572931463067 1.6464613636363636 3.967822931463067 1.6802113636363636 Q 3.949072931463067 1.7139613636363638 3.949072931463067 1.7630522727272728 Q 3.949072931463067 1.812143181818182 3.967822931463067 1.8458931818181818 Q 3.986572931463067 1.8796431818181818 4.017595658735794 1.8963477272727274 Q 4.048618386008521 1.9130522727272727 4.0854365678267035 1.9130522727272727 Q 4.122254749644885 1.9130522727272727 4.153618386008521 1.8963477272727274 M 4.682728937322442 1.576915909090909 L 4.682728937322442 1.9491886363636364 L 4.635001664595169 1.9491886363636364 L 4.635001664595169 1.883734090909091 Q 4.6186380282315325 1.9185068181818181 4.584547119140623 1.9369159090909092 Q 4.550456210049715 1.955325 4.508183482776987 1.955325 Q 4.441365300958806 1.955325 4.399092573686079 1.914075 Q 4.356819846413351 1.872825 4.356819846413351 1.794415909090909 L 4.356819846413351 1.576915909090909 L 4.403865300958806 1.576915909090909 L 4.403865300958806 1.7889613636363637 Q 4.403865300958806 1.8496431818181818 4.434206210049715 1.8816886363636365 Q 4.464547119140624 1.913734090909091 4.517047119140623 1.913734090909091 Q 4.5709107555042605 1.913734090909091 4.602956210049714 1.8796431818181818 Q 4.635001664595169 1.8455522727272728 4.635001664595169 1.7794159090909092 L 4.635001664595169 1.576915909090909 L 4.682728937322442 1.576915909090909 M 4.887612304687499 1.5891886363636365 Q 4.919998668323863 1.5700977272727275 4.967044122869317 1.5700977272727275 L 4.967044122869317 1.6198704545454545 L 4.954089577414772 1.6198704545454545 Q 4.90227139559659 1.6198704545454545 4.870907759232954 1.647825 Q 4.8395441228693175 1.6757795454545454 4.8395441228693175 1.7412340909090909 L 4.8395441228693175 1.9491886363636364 L 4.791816850142045 1.9491886363636364 L 4.791816850142045 1.576915909090909 L 4.8395441228693175 1.576915909090909 L 4.8395441228693175 1.6430522727272727 Q 4.855225941051136 1.6082795454545455 4.887612304687499 1.5891886363636365 M 5.22680752840909 1.6618022727272728 Q 5.249989346590908 1.6185068181818183 5.290898437499999 1.5949840909090909 Q 5.33180752840909 1.5714613636363637 5.38430752840909 1.5714613636363637 Q 5.453171164772726 1.5714613636363637 5.4978302556818175 1.6055522727272726 Q 5.542489346590909 1.6396431818181818 5.555443892045454 1.6982795454545454 L 5.50430752840909 1.6982795454545454 Q 5.494762073863636 1.6580522727272728 5.46305752840909 1.6352113636363637 Q 5.431352982954545 1.6123704545454545 5.38430752840909 1.6123704545454545 Q 5.34680752840909 1.6123704545454545 5.31680752840909 1.629415909090909 Q 5.28680752840909 1.6464613636363636 5.2694211647727265 1.6802113636363636 Q 5.252034801136363 1.7139613636363638 5.252034801136363 1.7630522727272728 Q 5.252034801136363 1.812143181818182 5.2694211647727265 1.8462340909090909 Q 5.28680752840909 1.880325 5.31680752840909 1.8973704545454546 Q 5.34680752840909 1.9144159090909092 5.38430752840909 1.9144159090909092 Q 5.431352982954545 1.9144159090909092 5.46305752840909 1.891575 Q 5.494762073863636 1.8687340909090908 5.50430752840909 1.827825 L 5.555443892045454 1.827825 Q 5.542489346590909 1.8850977272727274 5.497489346590908 1.9198704545454546 Q 5.452489346590908 1.9546431818181818 5.38430752840909 1.9546431818181818 Q 5.33180752840909 1.9546431818181818 5.290898437499999 1.9311204545454546 Q 5.249989346590908 1.9075977272727274 5.22680752840909 1.8643022727272727 Q 5.203625710227272 1.8210068181818182 5.203625710227272 1.7630522727272728 Q 5.203625710227272 1.7050977272727272 5.22680752840909 1.6618022727272728 M 5.644404851740056 1.6618022727272728 Q 5.667245760830965 1.6185068181818183 5.707813942649147 1.5949840909090909 Q 5.748382124467328 1.5714613636363637 5.7995184881036925 1.5714613636363637 Q 5.85270030628551 1.5714613636363637 5.891223033558238 1.5960068181818183 Q 5.929745760830965 1.6205522727272728 5.94679121537642 1.6587340909090909 L 5.94679121537642 1.576915909090909 L 5.994518488103692 1.576915909090909 L 5.994518488103692 1.9491886363636364 L 5.94679121537642 1.9491886363636364 L 5.94679121537642 1.8666886363636364 Q 5.9290639426491465 1.9048704545454545 5.89054121537642 1.929756818181818 Q 5.852018488103692 1.9546431818181818 5.798836669921874 1.9546431818181818 Q 5.748382124467328 1.9546431818181818 5.707813942649147 1.9307795454545456 Q 5.667245760830965 1.9069159090909091 5.644404851740056 1.8632795454545454 Q 5.621563942649147 1.8196431818181817 5.621563942649147 1.7623704545454546 Q 5.621563942649147 1.7050977272727272 5.644404851740056 1.6618022727272728 M 5.928382124467329 1.6839613636363637 Q 5.909973033558238 1.6498704545454546 5.878268488103692 1.6314613636363637 Q 5.846563942649147 1.6130522727272727 5.808382124467329 1.6130522727272727 Q 5.768836669921874 1.6130522727272727 5.737473033558238 1.6307795454545455 Q 5.706109397194601 1.648506818181818 5.68804121537642 1.6822568181818183 Q 5.669973033558238 1.7160068181818182 5.669973033558238 1.7623704545454546 Q 5.669973033558238 1.8080522727272728 5.68804121537642 1.842484090909091 Q 5.706109397194601 1.876915909090909 5.737473033558238 1.894984090909091 Q 5.768836669921874 1.9130522727272727 5.808382124467329 1.9130522727272727 Q 5.846563942649147 1.9130522727272727 5.878268488103692 1.894643181818182 Q 5.909973033558238 1.8762340909090909 5.928382124467329 1.842143181818182 Q 5.94679121537642 1.8080522727272728 5.94679121537642 1.7630522727272728 Q 5.94679121537642 1.7180522727272727 5.928382124467329 1.6839613636363637 M 6.199396528764204 1.5891886363636365 Q 6.231782892400568 1.5700977272727275 6.278828346946022 1.5700977272727275 L 6.278828346946022 1.6198704545454545 L 6.265873801491477 1.6198704545454545 Q 6.214055619673295 1.6198704545454545 6.182691983309659 1.647825 Q 6.1513283469460225 1.6757795454545454 6.1513283469460225 1.7412340909090909 L 6.1513283469460225 1.9491886363636364 L 6.10360107421875 1.9491886363636364 L 6.10360107421875 1.576915909090909 L 6.1513283469460225 1.576915909090909 L 6.1513283469460225 1.6430522727272727 Q 6.167010165127841 1.6082795454545455 6.199396528764204 1.5891886363636365 M 6.597918923117897 1.5960068181818183 Q 6.636782559481533 1.6205522727272728 6.653828014026988 1.6580522727272728 L 6.653828014026988 1.576915909090909 L 6.70155528675426 1.576915909090909 L 6.70155528675426 1.958734090909091 Q 6.70155528675426 2.0098704545454544 6.67939619584517 2.049415909090909 Q 6.657237104936079 2.0889613636363635 6.617691650390624 2.1104386363636363 Q 6.57814619584517 2.131915909090909 6.527691650390624 2.131915909090909 Q 6.456100741299715 2.131915909090909 6.408714377663352 2.097825 Q 6.361328014026988 2.063734090909091 6.349737104936079 2.005097727272727 L 6.396782559481533 2.005097727272727 Q 6.409055286754261 2.0439613636363636 6.443487104936079 2.067143181818182 Q 6.477918923117897 2.090325 6.527691650390624 2.090325 Q 6.563828014026988 2.090325 6.592464377663352 2.074984090909091 Q 6.621100741299715 2.0596431818181817 6.637464377663352 2.029643181818182 Q 6.653828014026988 1.999643181818182 6.653828014026988 1.958734090909091 L 6.653828014026988 1.8666886363636364 Q 6.636100741299715 1.9048704545454545 6.597578014026988 1.929756818181818 Q 6.55905528675426 1.9546431818181818 6.506555286754261 1.9546431818181818 Q 6.455418923117897 1.9546431818181818 6.414850741299715 1.9307795454545456 Q 6.374282559481533 1.9069159090909091 6.351441650390624 1.8632795454545454 Q 6.328600741299716 1.8196431818181817 6.328600741299716 1.7623704545454546 Q 6.328600741299716 1.7050977272727272 6.351441650390624 1.6618022727272728 Q 6.374282559481533 1.6185068181818183 6.414850741299715 1.5949840909090909 Q 6.455418923117897 1.5714613636363637 6.506555286754261 1.5714613636363637 Q 6.55905528675426 1.5714613636363637 6.597918923117897 1.5960068181818183 M 6.635418923117897 1.6839613636363637 Q 6.617009832208806 1.6498704545454546 6.58530528675426 1.6314613636363637 Q 6.553600741299715 1.6130522727272727 6.515418923117897 1.6130522727272727 Q 6.475873468572442 1.6130522727272727 6.444509832208806 1.6307795454545455 Q 6.41314619584517 1.648506818181818 6.395078014026988 1.6822568181818183 Q 6.377009832208806 1.7160068181818182 6.377009832208806 1.7623704545454546 Q 6.377009832208806 1.8080522727272728 6.395078014026988 1.842484090909091 Q 6.41314619584517 1.876915909090909 6.444509832208806 1.894984090909091 Q 6.475873468572442 1.9130522727272727 6.515418923117897 1.9130522727272727 Q 6.553600741299715 1.9130522727272727 6.58530528675426 1.894643181818182 Q 6.617009832208806 1.8762340909090909 6.635418923117897 1.842143181818182 Q 6.653828014026988 1.8080522727272728 6.653828014026988 1.7630522727272728 Q 6.653828014026988 1.7180522727272727 6.635418923117897 1.6839613636363637 M 6.879160600142045 1.9311204545454546 Q 6.837228781960227 1.9075977272727274 6.813024236505681 1.8643022727272727 Q 6.7888196910511365 1.8210068181818182 6.7888196910511365 1.7630522727272728 Q 6.7888196910511365 1.7050977272727272 6.813365145596591 1.6618022727272728 Q 6.837910600142045 1.6185068181818183 6.880183327414772 1.5949840909090909 Q 6.922456054687499 1.5714613636363637 6.9749560546875 1.5714613636363637 Q 7.0274560546875 1.5714613636363637 7.0700696910511365 1.5949840909090909 Q 7.112683327414772 1.6185068181818183 7.136887872869318 1.6618022727272728 Q 7.161092418323864 1.7050977272727272 7.161092418323864 1.7630522727272728 Q 7.161092418323864 1.820325 7.136546963778409 1.8639613636363637 Q 7.112001509232954 1.9075977272727274 7.069046963778408 1.9311204545454546 Q 7.026092418323863 1.9546431818181818 6.973592418323864 1.9546431818181818 Q 6.921092418323863 1.9546431818181818 6.879160600142045 1.9311204545454546 M 7.041774236505681 1.8963477272727274 Q 7.073137872869318 1.8796431818181818 7.0925696910511355 1.8458931818181818 Q 7.112001509232954 1.812143181818182 7.112001509232954 1.7630522727272728 Q 7.112001509232954 1.7139613636363638 7.092910600142045 1.6802113636363636 Q 7.073819691051136 1.6464613636363636 7.0424560546874995 1.6297568181818183 Q 7.011092418323863 1.6130522727272727 6.974274236505681 1.6130522727272727 Q 6.9374560546875 1.6130522727272727 6.906092418323864 1.6297568181818183 Q 6.8747287819602265 1.6464613636363636 6.855978781960227 1.6802113636363636 Q 6.837228781960227 1.7139613636363638 6.837228781960227 1.7630522727272728 Q 6.837228781960227 1.812143181818182 6.855978781960227 1.8458931818181818 Q 6.8747287819602265 1.8796431818181818 6.905751509232954 1.8963477272727274 Q 6.9367742365056815 1.9130522727272727 6.973592418323864 1.9130522727272727 Q 7.010410600142045 1.9130522727272727 7.041774236505681 1.8963477272727274 M 7.926103071732955 1.576915909090909 L 7.809512162642045 1.9491886363636364 L 7.761784889914773 1.9491886363636364 L 7.6588303444602275 1.6369159090909091 L 7.5558757990056815 1.9491886363636364 L 7.507466708096591 1.9491886363636364 L 7.3908757990056815 1.576915909090909 L 7.439284889914773 1.576915909090909 L 7.5320121626420455 1.9007795454545455 L 7.6363303444602275 1.576915909090909 L 7.6840576171875 1.576915909090909 L 7.787012162642045 1.9014613636363638 L 7.8790576171875 1.576915909090909 L 7.926103071732955 1.576915909090909 M 7.990195645419034 1.4964613636363637 Q 7.979968372691761 1.486234090909091 7.979968372691761 1.4712340909090909 Q 7.979968372691761 1.456234090909091 7.990195645419034 1.4463477272727272 Q 8.000422918146306 1.4364613636363637 8.014741099964489 1.4364613636363637 Q 8.02905928178267 1.4364613636363637 8.039286554509943 1.4463477272727272 Q 8.049513827237215 1.456234090909091 8.049513827237215 1.4712340909090909 Q 8.049513827237215 1.486234090909091 8.039286554509943 1.4964613636363637 Q 8.02905928178267 1.5066886363636365 8.014741099964489 1.5066886363636365 Q 8.000422918146306 1.5066886363636365 7.990195645419034 1.4964613636363637 M 8.038604736328125 1.576915909090909 L 8.038604736328125 1.9491886363636364 L 7.990877463600852 1.9491886363636364 L 7.990877463600852 1.576915909090909 L 8.038604736328125 1.576915909090909 M 8.209061945134943 1.6171431818181818 L 8.209061945134943 1.8482795454545455 Q 8.209061945134943 1.8823704545454545 8.222016490589487 1.895325 Q 8.234971036044033 1.9082795454545454 8.267698308771307 1.9082795454545454 L 8.31133467240767 1.9082795454545454 L 8.31133467240767 1.9491886363636364 L 8.260198308771306 1.9491886363636364 Q 8.20974376331676 1.9491886363636364 8.185198308771305 1.9256659090909092 Q 8.160652854225852 1.9021431818181818 8.160652854225852 1.8482795454545455 L 8.160652854225852 1.6171431818181818 L 8.108834672407669 1.6171431818181818 L 8.108834672407669 1.576915909090909 L 8.160652854225852 1.576915909090909 L 8.160652854225852 1.4835068181818183 L 8.209061945134943 1.4835068181818183 L 8.209061945134943 1.576915909090909 L 8.31133467240767 1.576915909090909 L 8.31133467240767 1.6171431818181818 L 8.209061945134943 1.6171431818181818 M 8.643051535866476 1.587825 Q 8.676801535866476 1.6055522727272726 8.696233354048294 1.6420295454545455 Q 8.715665172230112 1.6785068181818183 8.715665172230112 1.7310068181818181 L 8.715665172230112 1.9491886363636364 L 8.668619717684658 1.9491886363636364 L 8.668619717684658 1.7364613636363637 Q 8.668619717684658 1.6757795454545454 8.638278808593748 1.643734090909091 Q 8.60793789950284 1.6116886363636365 8.55543789950284 1.6116886363636365 Q 8.501574263139203 1.6116886363636365 8.469528808593749 1.6457795454545454 Q 8.437483354048293 1.6798704545454546 8.437483354048293 1.7460068181818182 L 8.437483354048293 1.9491886363636364 L 8.389756081321021 1.9491886363636364 L 8.389756081321021 1.444643181818182 L 8.437483354048293 1.444643181818182 L 8.437483354048293 1.640325 Q 8.455210626775566 1.606915909090909 8.489642444957385 1.5885068181818183 Q 8.524074263139203 1.5700977272727275 8.567028808593749 1.5700977272727275 Q 8.609301535866475 1.5700977272727275 8.643051535866476 1.587825 M 9.34360773259943 1.7814613636363636 L 9.034744096235794 1.7814613636363636 Q 9.036789550781249 1.8237340909090909 9.055198641690339 1.853734090909091 Q 9.073607732599429 1.883734090909091 9.10360773259943 1.899075 Q 9.13360773259943 1.9144159090909092 9.169062278053975 1.9144159090909092 Q 9.215425914417612 1.9144159090909092 9.247130459872157 1.891915909090909 Q 9.278835005326702 1.869415909090909 9.289062278053976 1.831234090909091 L 9.339516823508522 1.831234090909091 Q 9.325880459872158 1.8857795454545454 9.281221368963067 1.9202113636363636 Q 9.236562278053976 1.9546431818181818 9.169062278053975 1.9546431818181818 Q 9.116562278053975 1.9546431818181818 9.074971368963066 1.9311204545454546 Q 9.033380459872157 1.9075977272727274 9.00985773259943 1.8643022727272727 Q 8.986335005326703 1.8210068181818182 8.986335005326703 1.7630522727272728 Q 8.986335005326703 1.7050977272727272 9.009516823508521 1.6614613636363638 Q 9.032698641690338 1.617825 9.074289550781248 1.5946431818181819 Q 9.115880459872157 1.5714613636363637 9.169062278053975 1.5714613636363637 Q 9.222244096235794 1.5714613636363637 9.262130459872157 1.5946431818181819 Q 9.30201682350852 1.617825 9.323494096235793 1.6570295454545456 Q 9.344971368963066 1.696234090909091 9.344971368963066 1.7439613636363638 Q 9.344971368963066 1.7685068181818182 9.34360773259943 1.7814613636363636 M 9.27985773259943 1.6716886363636365 Q 9.262471368963066 1.6423704545454547 9.232471368963067 1.6273704545454546 Q 9.202471368963066 1.6123704545454545 9.16701682350852 1.6123704545454545 Q 9.113835005326703 1.6123704545454545 9.076335005326703 1.6464613636363636 Q 9.038835005326703 1.6805522727272728 9.034744096235794 1.7425977272727273 L 9.296562278053976 1.7425977272727273 Q 9.297244096235794 1.7010068181818183 9.27985773259943 1.6716886363636365 M 9.679750421697442 1.5960068181818183 Q 9.718614058061078 1.6205522727272728 9.735659512606532 1.6580522727272728 L 9.735659512606532 1.576915909090909 L 9.783386785333805 1.576915909090909 L 9.783386785333805 1.958734090909091 Q 9.783386785333805 2.0098704545454544 9.761227694424713 2.049415909090909 Q 9.739068603515623 2.0889613636363635 9.699523148970169 2.1104386363636363 Q 9.659977694424715 2.131915909090909 9.609523148970169 2.131915909090909 Q 9.53793223987926 2.131915909090909 9.490545876242896 2.097825 Q 9.443159512606533 2.063734090909091 9.431568603515624 2.005097727272727 L 9.478614058061078 2.005097727272727 Q 9.490886785333805 2.0439613636363636 9.525318603515624 2.067143181818182 Q 9.55975042169744 2.090325 9.609523148970169 2.090325 Q 9.645659512606532 2.090325 9.674295876242896 2.074984090909091 Q 9.70293223987926 2.0596431818181817 9.719295876242896 2.029643181818182 Q 9.735659512606532 1.999643181818182 9.735659512606532 1.958734090909091 L 9.735659512606532 1.8666886363636364 Q 9.717932239879259 1.9048704545454545 9.679409512606531 1.929756818181818 Q 9.640886785333805 1.9546431818181818 9.588386785333805 1.9546431818181818 Q 9.537250421697442 1.9546431818181818 9.49668223987926 1.9307795454545456 Q 9.456114058061077 1.9069159090909091 9.433273148970168 1.8632795454545454 Q 9.41043223987926 1.8196431818181817 9.41043223987926 1.7623704545454546 Q 9.41043223987926 1.7050977272727272 9.433273148970168 1.6618022727272728 Q 9.456114058061077 1.6185068181818183 9.49668223987926 1.5949840909090909 Q 9.537250421697442 1.5714613636363637 9.588386785333805 1.5714613636363637 Q 9.640886785333805 1.5714613636363637 9.679750421697442 1.5960068181818183 M 9.717250421697441 1.6839613636363637 Q 9.69884133078835 1.6498704545454546 9.667136785333804 1.6314613636363637 Q 9.63543223987926 1.6130522727272727 9.59725042169744 1.6130522727272727 Q 9.557704967151986 1.6130522727272727 9.52634133078835 1.6307795454545455 Q 9.494977694424714 1.648506818181818 9.476909512606532 1.6822568181818183 Q 9.458841330788351 1.7160068181818182 9.458841330788351 1.7623704545454546 Q 9.458841330788351 1.8080522727272728 9.476909512606532 1.842484090909091 Q 9.494977694424714 1.876915909090909 9.52634133078835 1.894984090909091 Q 9.557704967151986 1.9130522727272727 9.59725042169744 1.9130522727272727 Q 9.63543223987926 1.9130522727272727 9.667136785333804 1.894643181818182 Q 9.69884133078835 1.8762340909090909 9.717250421697441 1.842143181818182 Q 9.735659512606532 1.8080522727272728 9.735659512606532 1.7630522727272728 Q 9.735659512606532 1.7180522727272727 9.717250421697441 1.6839613636363637 M 10.139969371448862 1.5960068181818183 Q 10.178833007812498 1.6205522727272728 10.195878462357951 1.6580522727272728 L 10.195878462357951 1.576915909090909 L 10.243605735085225 1.576915909090909 L 10.243605735085225 1.958734090909091 Q 10.243605735085225 2.0098704545454544 10.221446644176133 2.049415909090909 Q 10.199287553267043 2.0889613636363635 10.159742098721589 2.1104386363636363 Q 10.120196644176133 2.131915909090909 10.069742098721589 2.131915909090909 Q 9.99815118963068 2.131915909090909 9.950764825994316 2.097825 Q 9.903378462357953 2.063734090909091 9.891787553267044 2.005097727272727 L 9.938833007812498 2.005097727272727 Q 9.951105735085225 2.0439613636363636 9.985537553267044 2.067143181818182 Q 10.01996937144886 2.090325 10.069742098721589 2.090325 Q 10.105878462357952 2.090325 10.134514825994316 2.074984090909091 Q 10.163151189630678 2.0596431818181817 10.179514825994316 2.029643181818182 Q 10.195878462357951 1.999643181818182 10.195878462357951 1.958734090909091 L 10.195878462357951 1.8666886363636364 Q 10.178151189630679 1.9048704545454545 10.139628462357951 1.929756818181818 Q 10.101105735085225 1.9546431818181818 10.048605735085225 1.9546431818181818 Q 9.997469371448862 1.9546431818181818 9.95690118963068 1.9307795454545456 Q 9.916333007812497 1.9069159090909091 9.893492098721588 1.8632795454545454 Q 9.87065118963068 1.8196431818181817 9.87065118963068 1.7623704545454546 Q 9.87065118963068 1.7050977272727272 9.893492098721588 1.6618022727272728 Q 9.916333007812497 1.6185068181818183 9.95690118963068 1.5949840909090909 Q 9.997469371448862 1.5714613636363637 10.048605735085225 1.5714613636363637 Q 10.101105735085225 1.5714613636363637 10.139969371448862 1.5960068181818183 M 10.177469371448861 1.6839613636363637 Q 10.15906028053977 1.6498704545454546 10.127355735085224 1.6314613636363637 Q 10.09565118963068 1.6130522727272727 10.05746937144886 1.6130522727272727 Q 10.017923916903406 1.6130522727272727 9.98656028053977 1.6307795454545455 Q 9.955196644176134 1.648506818181818 9.937128462357952 1.6822568181818183 Q 9.919060280539771 1.7160068181818182 9.919060280539771 1.7623704545454546 Q 9.919060280539771 1.8080522727272728 9.937128462357952 1.842484090909091 Q 9.955196644176134 1.876915909090909 9.98656028053977 1.894984090909091 Q 10.017923916903406 1.9130522727272727 10.05746937144886 1.9130522727272727 Q 10.09565118963068 1.9130522727272727 10.127355735085224 1.894643181818182 Q 10.15906028053977 1.8762340909090909 10.177469371448861 1.842143181818182 Q 10.195878462357951 1.8080522727272728 10.195878462357951 1.7630522727272728 Q 10.195878462357951 1.7180522727272727 10.177469371448861 1.6839613636363637 M 10.583824684836644 1.6764613636363637 L 10.583824684836644 1.7166886363636364 L 10.318597412109371 1.7166886363636364 L 10.318597412109371 1.6764613636363637 L 10.583824684836644 1.6764613636363637 M 10.707903275923293 1.6618022727272728 Q 10.73108509410511 1.6185068181818183 10.7719941850142 1.5949840909090909 Q 10.812903275923292 1.5714613636363637 10.865403275923292 1.5714613636363637 Q 10.93426691228693 1.5714613636363637 10.978926003196019 1.6055522727272726 Q 11.02358509410511 1.6396431818181818 11.036539639559656 1.6982795454545454 L 10.985403275923293 1.6982795454545454 Q 10.975857821377838 1.6580522727272728 10.944153275923293 1.6352113636363637 Q 10.912448730468746 1.6123704545454545 10.865403275923292 1.6123704545454545 Q 10.827903275923292 1.6123704545454545 10.797903275923293 1.629415909090909 Q 10.767903275923292 1.6464613636363636 10.750516912286928 1.6802113636363636 Q 10.733130548650566 1.7139613636363638 10.733130548650566 1.7630522727272728 Q 10.733130548650566 1.812143181818182 10.750516912286928 1.8462340909090909 Q 10.767903275923292 1.880325 10.797903275923293 1.8973704545454546 Q 10.827903275923292 1.9144159090909092 10.865403275923292 1.9144159090909092 Q 10.912448730468746 1.9144159090909092 10.944153275923293 1.891575 Q 10.975857821377838 1.8687340909090908 10.985403275923293 1.827825 L 11.036539639559656 1.827825 Q 11.02358509410511 1.8850977272727274 10.97858509410511 1.9198704545454546 Q 10.93358509410511 1.9546431818181818 10.865403275923292 1.9546431818181818 Q 10.812903275923292 1.9546431818181818 10.7719941850142 1.9311204545454546 Q 10.73108509410511 1.9075977272727274 10.707903275923293 1.8643022727272727 Q 10.684721457741475 1.8210068181818182 10.684721457741475 1.7630522727272728 Q 10.684721457741475 1.7050977272727272 10.707903275923293 1.6618022727272728 M 11.459932417436077 1.7814613636363636 L 11.151068781072441 1.7814613636363636 Q 11.153114235617895 1.8237340909090909 11.171523326526986 1.853734090909091 Q 11.189932417436076 1.883734090909091 11.219932417436077 1.899075 Q 11.249932417436076 1.9144159090909092 11.285386962890621 1.9144159090909092 Q 11.331750599254258 1.9144159090909092 11.363455144708803 1.891915909090909 Q 11.39515969016335 1.869415909090909 11.405386962890622 1.831234090909091 L 11.455841508345168 1.831234090909091 Q 11.442205144708804 1.8857795454545454 11.397546053799713 1.9202113636363636 Q 11.352886962890622 1.9546431818181818 11.285386962890621 1.9546431818181818 Q 11.232886962890621 1.9546431818181818 11.191296053799713 1.9311204545454546 Q 11.149705144708804 1.9075977272727274 11.126182417436077 1.8643022727272727 Q 11.10265969016335 1.8210068181818182 11.10265969016335 1.7630522727272728 Q 11.10265969016335 1.7050977272727272 11.125841508345168 1.6614613636363638 Q 11.149023326526985 1.617825 11.190614235617895 1.5946431818181819 Q 11.232205144708804 1.5714613636363637 11.285386962890621 1.5714613636363637 Q 11.338568781072441 1.5714613636363637 11.378455144708804 1.5946431818181819 Q 11.418341508345167 1.617825 11.43981878107244 1.6570295454545456 Q 11.461296053799712 1.696234090909091 11.461296053799712 1.7439613636363638 Q 11.461296053799712 1.7685068181818182 11.459932417436077 1.7814613636363636 M 11.396182417436076 1.6716886363636365 Q 11.378796053799713 1.6423704545454547 11.348796053799713 1.6273704545454546 Q 11.318796053799712 1.6123704545454545 11.283341508345167 1.6123704545454545 Q 11.23015969016335 1.6123704545454545 11.19265969016335 1.6464613636363636 Q 11.15515969016335 1.6805522727272728 11.151068781072441 1.7425977272727273 L 11.412886962890623 1.7425977272727273 Q 11.41356878107244 1.7010068181818183 11.396182417436076 1.6716886363636365 M 11.651870561079543 1.5963477272727273 Q 11.69039328835227 1.5714613636363637 11.743575106534088 1.5714613636363637 Q 11.794029651988634 1.5714613636363637 11.834597833806814 1.5949840909090909 Q 11.875166015624997 1.6185068181818183 11.898006924715906 1.6618022727272728 Q 11.920847833806814 1.7050977272727272 11.920847833806814 1.7623704545454546 Q 11.920847833806814 1.8196431818181817 11.898006924715906 1.8632795454545454 Q 11.875166015624997 1.9069159090909091 11.834597833806814 1.9307795454545456 Q 11.794029651988634 1.9546431818181818 11.743575106534088 1.9546431818181818 Q 11.691075106534088 1.9546431818181818 11.652211470170451 1.929756818181818 Q 11.613347833806815 1.9048704545454545 11.595620561079542 1.8673704545454546 L 11.595620561079542 2.125097727272727 L 11.548575106534088 2.125097727272727 L 11.548575106534088 1.576915909090909 L 11.595620561079542 1.576915909090909 L 11.595620561079542 1.6587340909090909 Q 11.613347833806815 1.621234090909091 11.651870561079543 1.5963477272727273 M 11.854370561079541 1.6822568181818183 Q 11.83630237926136 1.648506818181818 11.804938742897724 1.6307795454545455 Q 11.773575106534087 1.6130522727272727 11.734029651988633 1.6130522727272727 Q 11.695847833806814 1.6130522727272727 11.66414328835227 1.6314613636363637 Q 11.632438742897724 1.6498704545454546 11.614029651988632 1.6839613636363637 Q 11.595620561079542 1.7180522727272727 11.595620561079542 1.7630522727272728 Q 11.595620561079542 1.8080522727272728 11.614029651988632 1.842143181818182 Q 11.632438742897724 1.8762340909090909 11.66414328835227 1.894643181818182 Q 11.695847833806814 1.9130522727272727 11.734029651988633 1.9130522727272727 Q 11.773575106534087 1.9130522727272727 11.804938742897724 1.894984090909091 Q 11.83630237926136 1.876915909090909 11.854370561079541 1.842484090909091 Q 11.872438742897724 1.8080522727272728 11.872438742897724 1.7623704545454546 Q 11.872438742897724 1.7160068181818182 11.854370561079541 1.6822568181818183 M 12.070839510830963 1.6171431818181818 L 12.070839510830963 1.8482795454545455 Q 12.070839510830963 1.8823704545454545 12.083794056285507 1.895325 Q 12.096748601740053 1.9082795454545454 12.129475874467326 1.9082795454545454 L 12.17311223810369 1.9082795454545454 L 12.17311223810369 1.9491886363636364 L 12.121975874467326 1.9491886363636364 Q 12.07152132901278 1.9491886363636364 12.046975874467325 1.9256659090909092 Q 12.022430419921871 1.9021431818181818 12.022430419921871 1.8482795454545455 L 12.022430419921871 1.6171431818181818 L 11.970612238103689 1.6171431818181818 L 11.970612238103689 1.576915909090909 L 12.022430419921871 1.576915909090909 L 12.022430419921871 1.4835068181818183 L 12.070839510830963 1.4835068181818183 L 12.070839510830963 1.576915909090909 L 12.17311223810369 1.576915909090909 L 12.17311223810369 1.6171431818181818 L 12.070839510830963 1.6171431818181818 M 12.250851828835224 1.4964613636363637 Q 12.24062455610795 1.486234090909091 12.24062455610795 1.4712340909090909 Q 12.24062455610795 1.456234090909091 12.250851828835224 1.4463477272727272 Q 12.261079101562496 1.4364613636363637 12.275397283380677 1.4364613636363637 Q 12.289715465198858 1.4364613636363637 12.299942737926132 1.4463477272727272 Q 12.310170010653405 1.456234090909091 12.310170010653405 1.4712340909090909 Q 12.310170010653405 1.486234090909091 12.299942737926132 1.4964613636363637 Q 12.289715465198858 1.5066886363636365 12.275397283380677 1.5066886363636365 Q 12.261079101562496 1.5066886363636365 12.250851828835224 1.4964613636363637 M 12.299260919744313 1.576915909090909 L 12.299260919744313 1.9491886363636364 L 12.251533647017041 1.9491886363636364 L 12.251533647017041 1.576915909090909 L 12.299260919744313 1.576915909090909 M 12.476195401278405 1.9311204545454546 Q 12.434263583096588 1.9075977272727274 12.410059037642041 1.8643022727272727 Q 12.385854492187496 1.8210068181818182 12.385854492187496 1.7630522727272728 Q 12.385854492187496 1.7050977272727272 12.41039994673295 1.6618022727272728 Q 12.434945401278405 1.6185068181818183 12.477218128551133 1.5949840909090909 Q 12.51949085582386 1.5714613636363637 12.57199085582386 1.5714613636363637 Q 12.62449085582386 1.5714613636363637 12.667104492187496 1.5949840909090909 Q 12.709718128551133 1.6185068181818183 12.733922674005678 1.6618022727272728 Q 12.758127219460222 1.7050977272727272 12.758127219460222 1.7630522727272728 Q 12.758127219460222 1.820325 12.733581764914769 1.8639613636363637 Q 12.709036310369314 1.9075977272727274 12.666081764914768 1.9311204545454546 Q 12.623127219460223 1.9546431818181818 12.570627219460222 1.9546431818181818 Q 12.518127219460222 1.9546431818181818 12.476195401278405 1.9311204545454546 M 12.63880903764204 1.8963477272727274 Q 12.670172674005677 1.8796431818181818 12.689604492187495 1.8458931818181818 Q 12.709036310369314 1.812143181818182 12.709036310369314 1.7630522727272728 Q 12.709036310369314 1.7139613636363638 12.689945401278404 1.6802113636363636 Q 12.670854492187496 1.6464613636363636 12.63949085582386 1.6297568181818183 Q 12.608127219460224 1.6130522727272727 12.571309037642042 1.6130522727272727 Q 12.53449085582386 1.6130522727272727 12.503127219460223 1.6297568181818183 Q 12.471763583096587 1.6464613636363636 12.453013583096586 1.6802113636363636 Q 12.434263583096588 1.7139613636363638 12.434263583096588 1.7630522727272728 Q 12.434263583096588 1.812143181818182 12.453013583096586 1.8458931818181818 Q 12.471763583096587 1.8796431818181818 12.502786310369315 1.8963477272727274 Q 12.53380903764204 1.9130522727272727 12.570627219460222 1.9130522727272727 Q 12.607445401278405 1.9130522727272727 12.63880903764204 1.8963477272727274 M 13.129055952592324 1.6113477272727272 Q 13.171328679865052 1.6525977272727272 13.171328679865052 1.7310068181818181 L 13.171328679865052 1.9491886363636364 L 13.124283225319598 1.9491886363636364 L 13.124283225319598 1.7364613636363637 Q 13.124283225319598 1.6757795454545454 13.093942316228688 1.643734090909091 Q 13.06360140713778 1.6116886363636365 13.01110140713778 1.6116886363636365 Q 12.957237770774142 1.6116886363636365 12.925192316228689 1.6457795454545454 Q 12.893146861683233 1.6798704545454546 12.893146861683233 1.7460068181818182 L 12.893146861683233 1.9491886363636364 L 12.845419588955961 1.9491886363636364 L 12.845419588955961 1.576915909090909 L 12.893146861683233 1.576915909090909 L 12.893146861683233 1.640325 Q 12.910874134410506 1.606234090909091 12.944283225319598 1.5881659090909093 Q 12.977692316228689 1.5700977272727275 13.019965043501415 1.5700977272727275 Q 13.086783225319596 1.5700977272727275 13.129055952592324 1.6113477272727272 M 13.278030229048289 1.6618022727272728 Q 13.300871138139199 1.6185068181818183 13.34143931995738 1.5949840909090909 Q 13.382007501775563 1.5714613636363637 13.433143865411926 1.5714613636363637 Q 13.486325683593744 1.5714613636363637 13.524848410866472 1.5960068181818183 Q 13.5633711381392 1.6205522727272728 13.580416592684653 1.6587340909090909 L 13.580416592684653 1.576915909090909 L 13.628143865411927 1.576915909090909 L 13.628143865411927 1.9491886363636364 L 13.580416592684653 1.9491886363636364 L 13.580416592684653 1.8666886363636364 Q 13.56268931995738 1.9048704545454545 13.524166592684653 1.929756818181818 Q 13.485643865411927 1.9546431818181818 13.432462047230109 1.9546431818181818 Q 13.382007501775563 1.9546431818181818 13.34143931995738 1.9307795454545456 Q 13.300871138139199 1.9069159090909091 13.278030229048289 1.8632795454545454 Q 13.255189319957381 1.8196431818181817 13.255189319957381 1.7623704545454546 Q 13.255189319957381 1.7050977272727272 13.278030229048289 1.6618022727272728 M 13.562007501775563 1.6839613636363637 Q 13.54359841086647 1.6498704545454546 13.511893865411926 1.6314613636363637 Q 13.48018931995738 1.6130522727272727 13.442007501775562 1.6130522727272727 Q 13.402462047230108 1.6130522727272727 13.371098410866471 1.6307795454545455 Q 13.339734774502835 1.648506818181818 13.321666592684654 1.6822568181818183 Q 13.303598410866472 1.7160068181818182 13.303598410866472 1.7623704545454546 Q 13.303598410866472 1.8080522727272728 13.321666592684654 1.842484090909091 Q 13.339734774502835 1.876915909090909 13.371098410866471 1.894984090909091 Q 13.402462047230108 1.9130522727272727 13.442007501775562 1.9130522727272727 Q 13.48018931995738 1.9130522727272727 13.511893865411926 1.894643181818182 Q 13.54359841086647 1.8762340909090909 13.562007501775563 1.842143181818182 Q 13.580416592684653 1.8080522727272728 13.580416592684653 1.7630522727272728 Q 13.580416592684653 1.7180522727272727 13.562007501775563 1.6839613636363637 M 13.784953724254255 1.444643181818182 L 13.784953724254255 1.9491886363636364 L 13.737226451526983 1.9491886363636364 L 13.737226451526983 1.444643181818182 L 13.784953724254255 1.444643181818182 M 14.081538307883518 1.6618022727272728 Q 14.104720126065335 1.6185068181818183 14.145629216974426 1.5949840909090909 Q 14.186538307883517 1.5714613636363637 14.239038307883517 1.5714613636363637 Q 14.307901944247153 1.5714613636363637 14.352561035156244 1.6055522727272726 Q 14.397220126065335 1.6396431818181818 14.410174671519881 1.6982795454545454 L 14.359038307883518 1.6982795454545454 Q 14.349492853338063 1.6580522727272728 14.317788307883518 1.6352113636363637 Q 14.286083762428971 1.6123704545454545 14.239038307883517 1.6123704545454545 Q 14.201538307883517 1.6123704545454545 14.171538307883518 1.629415909090909 Q 14.141538307883517 1.6464613636363636 14.124151944247153 1.6802113636363636 Q 14.10676558061079 1.7139613636363638 14.10676558061079 1.7630522727272728 Q 14.10676558061079 1.812143181818182 14.124151944247153 1.8462340909090909 Q 14.141538307883517 1.880325 14.171538307883518 1.8973704545454546 Q 14.201538307883517 1.9144159090909092 14.239038307883517 1.9144159090909092 Q 14.286083762428971 1.9144159090909092 14.317788307883518 1.891575 Q 14.349492853338063 1.8687340909090908 14.359038307883518 1.827825 L 14.410174671519881 1.827825 Q 14.397220126065335 1.8850977272727274 14.352220126065335 1.9198704545454546 Q 14.307220126065335 1.9546431818181818 14.239038307883517 1.9546431818181818 Q 14.186538307883517 1.9546431818181818 14.145629216974426 1.9311204545454546 Q 14.104720126065335 1.9075977272727274 14.081538307883518 1.8643022727272727 Q 14.0583564897017 1.8210068181818182 14.0583564897017 1.7630522727272728 Q 14.0583564897017 1.7050977272727272 14.081538307883518 1.6618022727272728 M 14.499135631214482 1.6618022727272728 Q 14.521976540305392 1.6185068181818183 14.562544722123574 1.5949840909090909 Q 14.603112903941756 1.5714613636363637 14.65424926757812 1.5714613636363637 Q 14.707431085759938 1.5714613636363637 14.745953813032665 1.5960068181818183 Q 14.784476540305393 1.6205522727272728 14.801521994850846 1.6587340909090909 L 14.801521994850846 1.576915909090909 L 14.84924926757812 1.576915909090909 L 14.84924926757812 1.9491886363636364 L 14.801521994850846 1.9491886363636364 L 14.801521994850846 1.8666886363636364 Q 14.783794722123574 1.9048704545454545 14.745271994850846 1.929756818181818 Q 14.70674926757812 1.9546431818181818 14.653567449396302 1.9546431818181818 Q 14.603112903941756 1.9546431818181818 14.562544722123574 1.9307795454545456 Q 14.521976540305392 1.9069159090909091 14.499135631214482 1.8632795454545454 Q 14.476294722123574 1.8196431818181817 14.476294722123574 1.7623704545454546 Q 14.476294722123574 1.7050977272727272 14.499135631214482 1.6618022727272728 M 14.783112903941756 1.6839613636363637 Q 14.764703813032664 1.6498704545454546 14.73299926757812 1.6314613636363637 Q 14.701294722123574 1.6130522727272727 14.663112903941755 1.6130522727272727 Q 14.623567449396301 1.6130522727272727 14.592203813032665 1.6307795454545455 Q 14.560840176669029 1.648506818181818 14.542771994850847 1.6822568181818183 Q 14.524703813032666 1.7160068181818182 14.524703813032666 1.7623704545454546 Q 14.524703813032666 1.8080522727272728 14.542771994850847 1.842484090909091 Q 14.560840176669029 1.876915909090909 14.592203813032665 1.894984090909091 Q 14.623567449396301 1.9130522727272727 14.663112903941755 1.9130522727272727 Q 14.701294722123574 1.9130522727272727 14.73299926757812 1.894643181818182 Q 14.764703813032664 1.8762340909090909 14.783112903941756 1.842143181818182 Q 14.801521994850846 1.8080522727272728 14.801521994850846 1.7630522727272728 Q 14.801521994850846 1.7180522727272727 14.783112903941756 1.6839613636363637 M 15.05412730823863 1.5891886363636365 Q 15.086513671874995 1.5700977272727275 15.13355912642045 1.5700977272727275 L 15.13355912642045 1.6198704545454545 L 15.120604580965903 1.6198704545454545 Q 15.06878639914772 1.6198704545454545 15.037422762784084 1.647825 Q 15.006059126420448 1.6757795454545454 15.006059126420448 1.7412340909090909 L 15.006059126420448 1.9491886363636364 L 14.958331853693176 1.9491886363636364 L 14.958331853693176 1.576915909090909 L 15.006059126420448 1.576915909090909 L 15.006059126420448 1.6430522727272727 Q 15.021740944602266 1.6082795454545455 15.05412730823863 1.5891886363636365 M 15.54060424804687 1.7814613636363636 L 15.231740611683234 1.7814613636363636 Q 15.233786066228689 1.8237340909090909 15.252195157137779 1.853734090909091 Q 15.270604248046869 1.883734090909091 15.30060424804687 1.899075 Q 15.33060424804687 1.9144159090909092 15.366058793501415 1.9144159090909092 Q 15.412422429865051 1.9144159090909092 15.444126975319596 1.891915909090909 Q 15.475831520774143 1.869415909090909 15.486058793501416 1.831234090909091 L 15.536513338955961 1.831234090909091 Q 15.522876975319598 1.8857795454545454 15.478217884410506 1.9202113636363636 Q 15.433558793501415 1.9546431818181818 15.366058793501415 1.9546431818181818 Q 15.313558793501414 1.9546431818181818 15.271967884410506 1.9311204545454546 Q 15.230376975319597 1.9075977272727274 15.20685424804687 1.8643022727272727 Q 15.183331520774143 1.8210068181818182 15.183331520774143 1.7630522727272728 Q 15.183331520774143 1.7050977272727272 15.206513338955961 1.6614613636363638 Q 15.229695157137778 1.617825 15.271286066228688 1.5946431818181819 Q 15.312876975319597 1.5714613636363637 15.366058793501415 1.5714613636363637 Q 15.419240611683234 1.5714613636363637 15.459126975319597 1.5946431818181819 Q 15.49901333895596 1.617825 15.520490611683233 1.6570295454545456 Q 15.541967884410505 1.696234090909091 15.541967884410505 1.7439613636363638 Q 15.541967884410505 1.7685068181818182 15.54060424804687 1.7814613636363636 M 15.47685424804687 1.6716886363636365 Q 15.459467884410506 1.6423704545454547 15.429467884410506 1.6273704545454546 Q 15.399467884410505 1.6123704545454545 15.36401333895596 1.6123704545454545 Q 15.310831520774142 1.6123704545454545 15.273331520774143 1.6464613636363636 Q 15.235831520774143 1.6805522727272728 15.231740611683234 1.7425977272727273 L 15.493558793501416 1.7425977272727273 Q 15.494240611683233 1.7010068181818183 15.47685424804687 1.6716886363636365 M 15.69333784623579 1.4725977272727273 L 15.687201482599427 1.8230522727272727 L 15.646974209872154 1.8230522727272727 L 15.641519664417608 1.4725977272727273 L 15.69333784623579 1.4725977272727273 M 15.64458784623579 1.9423704545454545 Q 15.634701482599427 1.9321431818181818 15.634701482599427 1.9171431818181819 Q 15.634701482599427 1.9021431818181818 15.64458784623579 1.8922568181818182 Q 15.654474209872154 1.8823704545454545 15.669474209872154 1.8823704545454545 Q 15.683792391690336 1.8823704545454545 15.6936787553267 1.8922568181818182 Q 15.703565118963063 1.9021431818181818 15.703565118963063 1.9171431818181819 Q 15.703565118963063 1.9321431818181818 15.6936787553267 1.9423704545454545 Q 15.683792391690336 1.9525977272727273 15.669474209872154 1.9525977272727273 Q 15.654474209872154 1.9525977272727273 15.64458784623579 1.9423704545454545" fill="#c84449" fill-rule="nonzero"></path></g><g clip-path="url(#SvgjsClipPath1007)"><g clip-path="url(#SvgjsClipPath1004996fef5a-8eaf-497c-a548-bd8379192484)"><path d=" M 5.042057751809227 -6.8772197874535435 L 0.5255483487328952 -6.8772197874535435 C 0.22097788198017818 -6.312884818751385 0.041718651410183306 -5.689493328647156 0 -5.049574052298531 L 5.71940891242588 -5.049574052298531 C 5.6634306909168535 -5.708917191172677 5.429302181232051 -6.34064855458254 5.042057751809227 -6.8772197874535435 Z" fill="#c84449" transform="matrix(1,0,0,1,0,0)" fill-rule="nonzero"></path></g><g clip-path="url(#SvgjsClipPath1004996fef5a-8eaf-497c-a548-bd8379192484)"><path d=" M 0.9724397949385669 -7.544550960487114 L 4.426830514207701 -7.544550960487114 C 3.766074696883768 -8.104787252281245 2.927905093657377 -8.412287729465762 2.0616124452200815 -8.412281885182418 C 2.0029955178590275 -8.412281885182418 1.9453805892562812 -8.406269892632567 1.886763661895221 -8.403263896357643 C 1.543675994293399 -8.160770257143692 1.235957392378613 -7.8717676907426295 0.9724397949385669 -7.544550960487114 Z" fill="#c84449" transform="matrix(1,0,0,1,0,0)" fill-rule="nonzero"></path></g><g clip-path="url(#SvgjsClipPath1004996fef5a-8eaf-497c-a548-bd8379192484)"><path d=" M 1.005505753962746 -1.8877669704555213 C 1.2616252215231571 -1.5782947066445114 1.5580084522255926 -1.304489845989906 1.886763661895221 -1.0736429793297386 C 1.9453805892562812 -1.0706369830548024 2.0029955178590275 -1.0646249905049494 2.0616124452200815 -1.0646249905049494 C 2.904121725672094 -1.0645015224549343 3.720837595818323 -1.35526299041815 4.3737245800173365 -1.8877669704555213 Z" fill="#c84449" transform="matrix(1,0,0,1,0,0)" fill-rule="nonzero"></path></g><g clip-path="url(#SvgjsClipPath1004996fef5a-8eaf-497c-a548-bd8379192484)"><path d=" M 5.1222176524739185 -7.544550960487114 L 7.972403120482931 -7.544550960487114 C 7.1217681312214705 -8.60851684479269 5.833123333907438 -9.227486738136975 4.4709184595732845 -9.226405876308215 C 3.8498905277568096 -9.226751676459898 3.235615231339986 -9.097583232185587 2.667320694617681 -8.847149346288383 C 3.611048914355373 -8.70812200786109 4.478027585083522 -8.248092509107376 5.1222176524739185 -7.544550960487114 Z" fill="#382d5e" transform="matrix(1,0,0,1,0,0)" fill-rule="nonzero"></path></g><g clip-path="url(#SvgjsClipPath1004996fef5a-8eaf-497c-a548-bd8379192484)"><path d=" M 5.081135703383259 -1.8877669704555213 C 4.44199414547732 -1.2089998689600492 3.592625798521019 -0.7656055864259166 2.6703266908926038 -0.6292565300198358 C 3.23865379165384 -0.3789807742349005 3.8529305921882737 -0.24998264612267285 4.473924455848207 -0.25050099937915427 C 5.816531677491119 -0.24911351867094034 7.08896582501802 -0.8500260611735282 7.940840159596197 -1.8877669704555213 Z" fill="#382d5e" transform="matrix(1,0,0,1,0,0)" fill-rule="nonzero"></path></g><g clip-path="url(#SvgjsClipPath1004996fef5a-8eaf-497c-a548-bd8379192484)"><path d=" M 5.620712034732481 -6.8772197874535435 C 5.956283584150922 -6.322415298181792 6.156093706797176 -5.696206254012082 6.203875312068116 -5.049574052298531 L 8.944341916042331 -5.049574052298531 C 8.902623264632151 -5.689493328647156 8.72336403406215 -6.312884818751385 8.418793567309436 -6.8772197874535435 Z" fill="#c84449" transform="matrix(1,0,0,1,0,0)" fill-rule="nonzero"></path></g><g clip-path="url(#SvgjsClipPath1004996fef5a-8eaf-497c-a548-bd8379192484)"><path d=" M 8.941836919146565 -4.382242879264954 L 6.201871314551513 -4.382242879264954 C 6.146477733415434 -3.7337402080558846 5.938218782262533 -3.1075898413166785 5.594159067637305 -2.555098143489098 L 8.391238601455958 -2.555098143489098 C 8.705037085711544 -3.117038511917591 8.892908832732688 -3.7404855195482805 8.941836919146565 -4.38224287926496 Z" fill="#c84449" transform="matrix(1,0,0,1,0,0)" fill-rule="nonzero"></path></g><g clip-path="url(#SvgjsClipPath1004996fef5a-8eaf-497c-a548-bd8379192484)"><path d=" M 0.0020039975166153807 -4.382242879264954 C 0.05179393220086627 -3.740579549028345 0.23979248583911236 -3.1172788898295316 0.5531033145863885 -2.555098143489098 L 5.011997789059965 -2.555098143489098 C 5.4099485839687915 -3.088364573397998 5.6548794415127634 -3.720092181221796 5.720410911184201 -4.38224287926496 Z" fill="#c84449" transform="matrix(1,0,0,1,0,0)" fill-rule="nonzero"></path></g></g></g><defs><clipPath id="SvgjsClipPath1007"><path d=" M 0 -9.226405876308215 h 8.944842915421491 v 8.976405876308215 h -8.944842915421491 Z"></path></clipPath><clipPath id="SvgjsClipPath1004996fef5a-8eaf-497c-a548-bd8379192484"><path d=" M 0 -9.226405876308215 L 8.944842915421491 -9.226405876308215 L 8.944842915421491 -0.25 L 0 -0.25 Z"></path></clipPath></defs></svg>